<svg id="Group_21927" data-name="Group 21927" xmlns="http://www.w3.org/2000/svg" xmlns:xlink="http://www.w3.org/1999/xlink" width="90.764" height="92.38" viewBox="0 0 90.764 92.38">
  <defs>
    <clipPath id="clip-path">
      <path id="Path_19096" data-name="Path 19096" d="M.382.3,53.922,0,53.54,75.458,0,75.758Z" transform="translate(0)" fill="#fceee0"/>
    </clipPath>
    <clipPath id="clip-path-2">
      <path id="Path_19095" data-name="Path 19095" d="M.382.3,53.922,0,53.54,75.458,0,75.758Z" fill="#fceee0"/>
    </clipPath>
  </defs>
  <g id="Group_9008" data-name="Group 9008" transform="translate(0 36.081) rotate(-42)">
    <g id="Group_9007" data-name="Group 9007" transform="translate(0 0)" clip-path="url(#clip-path)">
      <g id="Group_9006" data-name="Group 9006" transform="translate(0)">
        <g id="Group_9005" data-name="Group 9005" clip-path="url(#clip-path-2)">
          <g id="Group_9004" data-name="Group 9004" style="mix-blend-mode: multiply;isolation: isolate">
            <g id="Group_9003" data-name="Group 9003">
              <g id="Group_9002" data-name="Group 9002" clip-path="url(#clip-path-2)">
                <path id="Path_10557" data-name="Path 10557" d="M42.823,45.829c5.17,5.037,11.747,11.006,10.4,19.336-1.138,7.171-8.76,9.847-14.769,10.2C17.927,76.637-.595,56.933.015,35.437a37.175,37.175,0,0,1,10.739-25.03C16.994,3.841,25.432-1.685,34.632.476c4,.926,5.179,5.45,4.659,9.245-1.149,9.383-6.4,18.895-2,27.928a51.516,51.516,0,0,0,5.534,8.18" transform="translate(0.199 0.13)" fill="#fceee0"/>
              </g>
            </g>
          </g>
        </g>
      </g>
    </g>
  </g>
  <g id="doctor" transform="translate(31.338 19.367)">
    <path id="Path_10555" data-name="Path 10555" d="M40.249,24.923a5.846,5.846,0,0,0-3.022-.264,3.1,3.1,0,0,1-.953.032l-.017,0a2.351,2.351,0,0,1-1.545-.877l0,0,0,0A4.39,4.39,0,0,1,34,22.539a.625.625,0,0,1,.249-.682,4.788,4.788,0,0,0,1.25-1.563,7.531,7.531,0,0,0,.846-3.52V11.992A5.7,5.7,0,0,0,34.579,7.6c-2.154-1.983-5.526-1.859-6.062-1.826-.533-.034-3.907-.157-6.062,1.826a5.7,5.7,0,0,0-1.762,4.389v4.781a7.535,7.535,0,0,0,.847,3.523,4.771,4.771,0,0,0,1.243,1.557.627.627,0,0,1,.255.685c-.633,1.674-1.72,2.39-3.225,2.122a5.832,5.832,0,0,0-3.027.264,6.6,6.6,0,0,0-4.247,6.257V41.87c0,1.59.915,3.814,5.279,5.389a32.738,32.738,0,0,0,10.7,1.588c7.953,0,15.978-2.157,15.978-6.976V31.179A6.6,6.6,0,0,0,40.249,24.923ZM37.54,31.846a1.373,1.373,0,1,1-1.373,1.374A1.375,1.375,0,0,1,37.54,31.846ZM22.991,19.523a5.88,5.88,0,0,1-.655-2.751V11.991a4.072,4.072,0,0,1,1.227-3.176c1.76-1.626,4.861-1.4,4.888-1.4a.819.819,0,0,0,.135,0c.032,0,3.109-.238,4.881,1.392A4.073,4.073,0,0,1,34.7,11.991v4.781a5.869,5.869,0,0,1-.654,2.747,3.183,3.183,0,0,1-.8,1.037,2.25,2.25,0,0,0-.78,2.56,6.5,6.5,0,0,0,.517,1.062L28.494,27.9l-4.6-3.489a6.273,6.273,0,0,0,.677-1.3,2.252,2.252,0,0,0-.786-2.564A3.17,3.17,0,0,1,22.991,19.523ZM42.854,41.87c0,3.465-7.386,5.334-14.336,5.334s-14.336-1.87-14.336-5.334V31.179a4.958,4.958,0,0,1,3.163-4.713,4.217,4.217,0,0,1,1.443-.256,4.266,4.266,0,0,1,.741.066c.033.006.064,0,.1.009a7.227,7.227,0,0,0-.706,3.126v.035a3.426,3.426,0,0,0-2.608,3.318v2.718a.821.821,0,0,0,1.642,0V32.764a1.786,1.786,0,0,1,3.572,0v2.718a.821.821,0,0,0,1.642,0V32.764a3.426,3.426,0,0,0-2.606-3.317v-.036A5.582,5.582,0,0,1,21.6,26.169a3.892,3.892,0,0,0,1.155-.56l5.265,4a.819.819,0,0,0,1.021-.022l4.994-4.15a3.881,3.881,0,0,0,1.7.82,5.649,5.649,0,0,1,.978,3.157v.921a3.015,3.015,0,1,0,1.642,0v-.92a7.267,7.267,0,0,0-.718-3.15,4.2,4.2,0,0,1,2.049.205,4.957,4.957,0,0,1,3.163,4.713V41.87Z" transform="translate(-12.539 -5.763)" fill="#ea765f" stroke="#ea765f" stroke-width="0.4"/>
    <path id="Path_10556" data-name="Path 10556" d="M36.031,43H33.512V40.478a.821.821,0,0,0-.821-.821H28.605a.821.821,0,0,0-.821.821V43H25.265a.821.821,0,0,0-.821.821V47.9a.821.821,0,0,0,.821.821h2.519v2.511a.821.821,0,0,0,.821.821h4.086a.821.821,0,0,0,.821-.821V48.725h2.519a.821.821,0,0,0,.821-.821V43.818A.821.821,0,0,0,36.031,43Zm-.821,4.086H32.691a.821.821,0,0,0-.821.821v2.511H29.426V47.9a.821.821,0,0,0-.821-.821H26.086V44.639h2.519a.821.821,0,0,0,.821-.821V41.3H31.87v2.519a.821.821,0,0,0,.821.821H35.21Z" transform="translate(-14.669 -11.828)" fill="#ea765f" stroke="#ea765f" stroke-width="0.4"/>
  </g>
</svg>
